<?xml version="1.0" standalone="no"?>
<!DOCTYPE svg PUBLIC "-//W3C//DTD SVG 20010904//EN"
 "http://www.w3.org/TR/2001/REC-SVG-20010904/DTD/svg10.dtd">
<svg version="1.0" xmlns="http://www.w3.org/2000/svg"
 width="457.000000pt" height="269.000000pt" viewBox="0 0 457.000000 269.000000"
 preserveAspectRatio="xMidYMid meet">

<g transform="translate(0.000000,269.000000) scale(0.100000,-0.100000)"
fill="#000000" stroke="none">
<path d="M3451 2665 c-273 -60 -520 -206 -791 -470 l-95 -93 -405 -5 c-543 -8
-852 -34 -1120 -93 -249 -55 -386 -116 -567 -253 -243 -183 -383 -375 -442
-607 -89 -350 42 -735 324 -951 80 -62 221 -133 310 -157 301 -80 645 1 960
227 98 70 258 210 316 278 l50 56 452 6 c690 9 1049 53 1342 168 123 48 181
82 321 191 220 171 342 339 411 565 24 80 27 103 27 248 0 145 -3 168 -27 248
-99 323 -334 554 -644 633 -78 20 -119 24 -227 23 -72 0 -160 -7 -195 -14z
m288 -165 c299 -72 490 -314 491 -621 0 -113 -17 -185 -65 -276 -185 -349
-556 -564 -1120 -647 -159 -24 -378 -38 -536 -34 l-147 3 294 649 c161 357
298 663 304 680 l10 31 -20 -25 c-20 -25 -176 -261 -783 -1185 l-309 -470 58
-5 59 -5 -115 -86 c-63 -47 -151 -107 -195 -134 -444 -268 -898 -272 -1160
-10 -138 138 -196 315 -174 532 15 145 97 293 243 438 216 214 554 353 996
410 220 28 620 40 620 19 0 -3 -118 -264 -261 -582 -325 -718 -350 -774 -346
-779 5 -4 -1 -13 600 902 275 418 500 767 501 775 1 11 -13 16 -48 20 l-49 5
93 69 c242 181 462 288 676 330 107 22 283 20 383 -4z"/>
</g>
</svg>
